HIERARCHY
ROOT Hips
{
	OFFSET 0.000000 0.000000 0.000000
	CHANNELS 6 Xposition Yposition Zposition Yrotation Xrotation Zrotation 
	JOINT LeftHip
	{
		OFFSET 0.098173 -0.000219 0.000024
		CHANNELS 3 Yrotation Xrotation Zrotation
		JOINT LeftKnee
		{
			OFFSET 0.000000 -0.409037 -0.000015
			CHANNELS 3 Yrotation Xrotation Zrotation
			JOINT LeftAnkle
			{
				OFFSET 0.000000 -0.429753 0.000242
				CHANNELS 3 Yrotation Xrotation Zrotation
				JOINT LeftToe
				{
					OFFSET 0.000000 -0.083906 0.181590
					CHANNELS 3 Yrotation Xrotation Zrotation
					End Site
					{
						OFFSET 0.000000 0.000000 0.000000
					}
				}
			}
		}
	}
	JOINT RightHip
	{
		OFFSET -0.098173 -0.000196 0.000022
		CHANNELS 3 Yrotation Xrotation Zrotation
		JOINT RightKnee
		{
			OFFSET 0.000000 -0.409037 -0.000015
			CHANNELS 3 Yrotation Xrotation Zrotation
			JOINT RightAnkle
			{
				OFFSET 0.000000 -0.429753 0.000242
				CHANNELS 3 Yrotation Xrotation Zrotation
				JOINT RightToe
				{
					OFFSET 0.000000 -0.083906 0.181590
					CHANNELS 3 Yrotation Xrotation Zrotation
					End Site
					{
						OFFSET 0.000000 0.000000 0.000000
					}
				}
			}
		}
	}
	JOINT Chest
	{
		OFFSET 0.000000 0.119819 -0.013313
		CHANNELS 3 Yrotation Xrotation Zrotation
		JOINT Chest3
		{
			OFFSET 0.000000 0.213365 -0.010277
			CHANNELS 3 Yrotation Xrotation Zrotation
			JOINT Chest4
			{
				OFFSET 0.000000 0.101957 0.000085
				CHANNELS 3 Yrotation Xrotation Zrotation
				JOINT Neck
				{
					OFFSET 0.000000 0.137769 0.000000
					CHANNELS 3 Yrotation Xrotation Zrotation
					JOINT Head
					{
						OFFSET 0.000000 0.090348 0.000182
						CHANNELS 3 Yrotation Xrotation Zrotation
						End Site
						{
							OFFSET 0.000000 0.000000 0.000000
						}
					}
				}
				JOINT LeftCollar
				{
					OFFSET 0.026598 0.077176 0.000000
					CHANNELS 3 Yrotation Xrotation Zrotation
					JOINT LeftShoulder
					{
						OFFSET 0.125155 0.000000 0.000000
						CHANNELS 3 Yrotation Xrotation Zrotation
						JOINT LeftElbow
						{
							OFFSET 0.295479 0.000000 0.000000
							CHANNELS 3 Yrotation Xrotation Zrotation
							JOINT LeftWrist
							{
								OFFSET 0.250185 0.000000 -0.000004
								CHANNELS 3 Yrotation Xrotation Zrotation
								End Site
								{
									OFFSET 0.000000 0.000000 0.000000
								}
							}
						}
					}
				}
				JOINT RightCollar
				{
					OFFSET -0.026598 0.077176 0.000000
					CHANNELS 3 Yrotation Xrotation Zrotation
					JOINT RightShoulder
					{
						OFFSET -0.125155 0.000000 0.000000
						CHANNELS 3 Yrotation Xrotation Zrotation
						JOINT RightElbow
						{
							OFFSET -0.295479 0.000000 0.000000
							CHANNELS 3 Yrotation Xrotation Zrotation
							JOINT RightWrist
							{
								OFFSET -0.250185 0.000000 -0.000004
								CHANNELS 3 Yrotation Xrotation Zrotation
								End Site
								{
									OFFSET 0.000000 0.000000 0.000000
								}
							}
						}
					}
				}
			}
		}
	}
}
MOTION
Frames: 11
Frame Time: 0.016667
0.000000 0.000000 0.000000 -178.045341 0.234007 -2.426921 11.489228 4.595591 0.416616 2.301572 7.706971 0.558597 18.895697 -11.933227 -2.537812 0.000000 -0.000000 0.000000 -8.565499 -7.396577 0.096263 5.436376 9.863587 0.115150 6.508592 -2.198534 4.532959 0.000000 -0.000000 0.000000 -5.858899 -6.248496 3.349762 -5.492410 -11.396125 2.989665 -1.911867 3.708745 0.849185 9.161575 22.486359 1.942921 16.007986 5.937243 1.051019 0.209895 1.800115 -3.423668 -9.736826 -32.780670 -67.137708 -85.722467 -30.735072 0.185092 2.463324 0.670893 19.000597 -5.480271 -5.777893 5.045641 39.151544 -31.318478 44.877513 118.505909 45.529960 21.206188 -16.278944 21.965083 8.206105 
0.000000 0.000000 0.000000 -177.951760 0.242341 -2.398749 11.453651 4.629471 0.373817 2.197748 7.589332 0.547045 18.926140 -11.883838 -2.501792 0.000000 -0.000000 0.000000 -8.638470 -7.430053 0.057278 5.415209 9.883748 0.119785 6.487024 -2.199247 4.532260 0.000000 -0.000000 0.000000 -5.749239 -6.279039 3.267586 -5.387817 -11.422923 2.916100 -1.876074 3.700283 0.826460 8.728055 22.427851 1.946508 15.226267 5.799628 1.164400 0.130262 1.967276 -3.476897 -9.280726 -32.621920 -67.776839 -86.047354 -30.452517 0.363384 2.341684 0.581228 19.583166 -5.542455 -5.830067 5.037709 38.854709 -31.348529 45.444304 117.468815 46.092694 20.730698 -16.195780 21.922661 8.191397 
0.000000 0.000000 0.000000 -177.802323 0.249012 -2.367087 11.410558 4.662533 0.335086 2.080371 7.465756 0.531185 18.919709 -11.829502 -2.455486 0.000000 -0.000000 0.000000 -8.719636 -7.454409 0.011180 5.358948 9.900437 0.119912 6.449727 -2.197727 4.536488 0.000000 -0.000000 0.000000 -5.623249 -6.308397 3.169508 -5.267359 -11.448591 2.828271 -1.835060 3.692484 0.799197 8.280347 22.343401 1.953576 14.418485 5.615135 1.286700 0.022489 2.156906 -3.538754 -8.867799 -32.506170 -68.394293 -86.384996 -30.305636 0.532142 2.228496 0.438776 20.194637 -5.612788 -5.883720 5.028389 38.633067 -31.352654 45.982472 116.226468 46.812831 20.081844 -16.110304 21.912433 8.228232 
0.000000 0.000000 0.000000 -177.594431 0.257059 -2.336618 11.374983 4.672069 0.303239 1.949036 7.365578 0.515209 18.861411 -11.781173 -2.398235 0.000000 -0.000000 0.000000 -8.778435 -7.471190 -0.039512 5.266211 9.909011 0.112495 6.376781 -2.197672 4.548361 0.000000 -0.000000 0.000000 -5.492354 -6.335623 3.073036 -5.142694 -11.472380 2.741930 -1.792419 3.685351 0.772741 7.819069 22.251802 1.947341 13.589621 5.419749 1.389457 -0.078983 2.324046 -3.599835 -8.561645 -32.417390 -68.961414 -86.753828 -30.030995 0.806810 2.131382 0.324101 20.711542 -5.668526 -5.995850 4.994715 38.469190 -31.382798 46.464247 114.865388 47.574911 19.433582 -16.022611 21.894352 8.261337 
0.000000 0.000000 0.000000 -177.314962 0.269696 -2.310247 11.355043 4.644742 0.282222 1.799604 7.303894 0.500309 18.735321 -11.745657 -2.328486 0.000000 -0.000000 0.000000 -8.789442 -7.477640 -0.093698 5.122992 9.904006 0.093608 6.250450 -2.203736 4.570393 0.000000 -0.000000 0.000000 -5.362451 -6.363797 2.985227 -5.019669 -11.497030 2.663400 -1.750009 3.677752 0.749134 7.341002 22.166069 1.920163 12.735494 5.238147 1.461028 -0.162227 2.453186 -3.664479 -8.386990 -32.335401 -69.473675 -87.180743 -29.563001 1.249533 2.079915 0.277483 21.025523 -5.711557 -6.190212 4.915841 38.324325 -31.463452 46.941029 113.409747 48.316046 18.857117 -15.920874 21.854026 8.303411 
0.000000 0.000000 0.000000 -176.977035 0.283643 -2.285004 11.342662 4.593916 0.267741 1.636190 7.265676 0.484953 18.557356 -11.715905 -2.247984 0.000000 -0.000000 0.000000 -8.778120 -7.476167 -0.152446 4.943299 9.890920 0.067168 6.088457 -2.211148 4.600060 0.000000 -0.000000 0.000000 -5.227647 -6.389612 2.898951 -4.892437 -11.519559 2.586272 -1.705977 3.670920 0.726296 6.849501 22.072730 1.879607 11.860471 5.045114 1.513143 -0.239384 2.559971 -3.728334 -8.317291 -32.282122 -69.936905 -87.637326 -28.964841 1.794165 2.048857 0.258347 21.245229 -5.739354 -6.442120 4.810275 38.235781 -31.572558 47.361013 111.827224 49.099463 18.273438 -15.816620 21.805965 8.341958 
0.000000 0.000000 0.000000 -176.617415 0.292205 -2.256819 11.328611 4.536982 0.250289 1.470751 7.235086 0.469242 18.360290 -11.682103 -2.161002 0.000000 -0.000000 0.000000 -8.790211 -7.476115 -0.216543 4.767763 9.881544 0.041905 5.924089 -2.209494 4.632516 0.000000 -0.000000 0.000000 -5.081735 -6.402735 2.810615 -4.755186 -11.530806 2.507368 -1.658360 3.668348 0.703428 6.355229 21.950578 1.831886 10.982644 4.800751 1.552536 -0.312172 2.645627 -3.769419 -8.338471 -32.305978 -70.338662 -88.060676 -28.165140 2.363186 1.970569 0.226041 21.573965 -5.722689 -6.736187 4.713411 38.300677 -31.689913 47.541147 110.127733 50.001327 17.646626 -15.744504 21.751101 8.284310 
0.000000 0.000000 0.000000 -176.251488 0.287448 -2.223964 11.314796 4.485196 0.226397 1.302296 7.209138 0.454749 18.158526 -11.642957 -2.070763 0.000000 -0.000000 0.000000 -8.850271 -7.478883 -0.288570 4.615509 9.886335 0.024540 5.776216 -2.197281 4.662584 0.000000 -0.000000 0.000000 -4.923043 -6.395829 2.719439 -4.606402 -11.524224 2.425990 -1.606667 3.672504 0.680397 5.859486 21.791305 1.777502 10.103986 4.489767 1.579798 -0.375037 2.725374 -3.779723 -8.429608 -32.434859 -70.696346 -88.424351 -27.116161 2.927853 1.813894 0.170675 22.128035 -5.634858 -7.065109 4.643140 38.540633 -31.822032 47.397826 108.377828 51.068416 17.040053 -15.726546 21.681798 8.047044 
0.000000 0.000000 0.000000 -175.863881 0.277214 -2.188317 11.299340 4.427390 0.199440 1.131814 7.190859 0.439837 17.937708 -11.599630 -1.974140 0.000000 -0.000000 0.000000 -8.933695 -7.483084 -0.366012 4.467406 9.894840 0.008332 5.626002 -2.176005 4.695420 0.000000 -0.000000 0.000000 -4.753349 -6.375993 2.626679 -4.447766 -11.506113 2.343248 -1.551426 3.681000 0.657451 5.361107 21.603139 1.716086 9.222115 4.127452 1.595785 -0.433434 2.783210 -3.767506 -8.608781 -32.643009 -70.996028 -88.748389 -25.862991 3.509137 1.621972 0.106271 22.795616 -5.502278 -7.436433 4.578296 38.938847 -31.951687 47.011711 106.488121 52.243245 16.381691 -15.745107 21.603352 7.712186 
0.000000 0.000000 0.000000 -175.445214 0.278466 -2.151120 11.267358 4.347347 0.170210 0.974244 7.173419 0.419824 17.687527 -11.546007 -1.865920 0.000000 -0.000000 0.000000 -9.012457 -7.493987 -0.442101 4.306695 9.887490 -0.018228 5.450210 -2.139741 4.741621 0.000000 -0.000000 0.000000 -4.571634 -6.354521 2.531772 -4.278269 -11.486568 2.258652 -1.492203 3.690042 0.634355 4.866971 21.389810 1.652411 8.348243 3.720043 1.607687 -0.505588 2.773187 -3.736113 -8.920318 -32.899760 -71.178324 -89.037533 -24.473317 4.103370 1.439157 0.028127 23.438571 -5.375573 -7.857191 4.495866 39.534282 -32.019921 46.448859 104.211630 53.433068 15.412307 -15.773020 21.536039 7.435638 
0.000000 0.000000 0.000000 -174.985751 0.299618 -2.111494 11.197226 4.231435 0.136342 0.849920 7.161494 0.391729 17.399603 -11.481538 -1.742732 0.000000 -0.000000 0.000000 -9.088738 -7.514001 -0.513564 4.135758 9.852525 -0.062012 5.237422 -2.085237 4.808466 0.000000 -0.000000 0.000000 -4.375321 -6.333545 2.436309 -4.095746 -11.467452 2.173637 -1.428099 3.698931 0.611731 4.375403 21.143989 1.581316 7.480565 3.254272 1.606714 -0.591935 2.652917 -3.685613 -9.391574 -33.168956 -71.211413 -89.290411 -22.990966 4.721533 1.296049 -0.087630 23.992250 -5.266062 -8.343616 4.379456 40.402573 -31.967897 45.682239 101.343013 54.595869 13.914966 -15.799628 21.502464 7.326760 
